# xmcd CD database file
#
# Track frame offsets:
#	150
#	22195
#	57002
#	73935
#	92637
#	128880
#	152337
#	171927
#	198735
#	230987
#
# Disc length: 3516 seconds
#
# Revision: 0
# Processed by: cddbd v1.4PL0 Copyright (c) Steve Scherf et al.
# Submitted via: CDex 1.50Beta7
#
DISCID=8e0dba0a
DTITLE=Various Artist - Telarc Jazz Celebrating 25 Years #1
DYEAR=2002
DGENRE=Jazz
TTITLE0=I Only Have Eyes for You
TTITLE1=Bebop
TTITLE2=Here's to Life
TTITLE3=Tanga
TTITLE4=Brother Blues
TTITLE5=Lullaby
TTITLE6=Red Top
TTITLE7=Some Cats Know
TTITLE8=Conception
TTITLE9=A Timeless Place (The Peacocks)
EXTD=YEAR: 2002
EXTT0=
EXTT1=
EXTT2=
EXTT3=
EXTT4=
EXTT5=
EXTT6=
EXTT7=
EXTT8=
EXTT9=
PLAYORDER=
